<?xml version="1.0" encoding="utf-8"?>
<!-- Generator: Adobe Illustrator 26.2.1, SVG Export Plug-In . SVG Version: 6.00 Build 0)  -->
<svg version="1.1" id="Layer_1" xmlns="http://www.w3.org/2000/svg" xmlns:xlink="http://www.w3.org/1999/xlink" x="0px" y="0px"
	 viewBox="0 0 700 700" style="enable-background:new 0 0 700 700;" xml:space="preserve">
<style type="text/css">
	.st0{fill-rule:evenodd;clip-rule:evenodd;}
</style>
<path class="st0" d="M595.1,317.3c-30.5,0-56-20.8-63.3-49h-74.9c-16,0-29.6,11.5-32.2,27.3l-2.7,16.1
	c-2.6,15.3-10.3,28.6-21.2,38.3c10.9,9.7,18.7,23,21.2,38.3l2.7,16.1c2.6,15.8,16.3,27.3,32.2,27.3h9.6c7.3-28.2,32.8-49,63.3-49
	c36.1,0,65.4,29.3,65.4,65.3c0,36.1-29.3,65.3-65.4,65.3c-30.5,0-56-20.8-63.3-49h-9.6c-31.9,0-59.2-23.1-64.5-54.6l-2.7-16.1
	c-2.6-15.8-16.3-27.3-32.2-27.3h-25.9c-7.3,28.2-32.8,49-63.3,49s-56-20.8-63.3-49h-36.8c-7.3,28.2-32.8,49-63.3,49
	c-36.1,0-65.4-29.3-65.4-65.3s29.3-65.3,65.4-65.3c30.5,0,56,20.8,63.3,49H205c7.3-28.2,32.8-49,63.3-49s56,20.8,63.3,49h25.9
	c16,0,29.6-11.5,32.2-27.3l2.7-16.1c5.3-31.5,32.5-54.6,64.5-54.6h74.9c7.3-28.2,32.8-49,63.3-49c36.1,0,65.4,29.3,65.4,65.3
	S631.2,317.3,595.1,317.3z M595.1,284.7c18,0,32.7-14.6,32.7-32.7s-14.6-32.7-32.7-32.7c-18,0-32.7,14.6-32.7,32.7
	S577,284.7,595.1,284.7z M104.9,382.7c18,0,32.7-14.6,32.7-32.7s-14.6-32.7-32.7-32.7c-18,0-32.7,14.6-32.7,32.7
	S86.9,382.7,104.9,382.7z M301,350c0,18-14.6,32.7-32.7,32.7S235.6,368,235.6,350s14.6-32.7,32.7-32.7S301,332,301,350z M562.4,448
	c0,18-14.6,32.7-32.7,32.7c-18,0-32.7-14.6-32.7-32.7c0-18,14.6-32.7,32.7-32.7C547.8,415.3,562.4,430,562.4,448z"/>
</svg>
